<?xml version="1.0" encoding="iso-8859-1"?>
<!-- Generator: Adobe Illustrator 19.0.0, SVG Export Plug-In . SVG Version: 6.00 Build 0)  -->
<svg version="1.1" id="Layer_1" xmlns="http://www.w3.org/2000/svg" xmlns:xlink="http://www.w3.org/1999/xlink" x="0px" y="0px"
	 viewBox="0 0 512 512" style="enable-background:new 0 0 512 512;" xml:space="preserve">
<path style="fill:#E2B700;" d="M102.17,365.976l30.461-28.803c0,0,17.783-21.302,33.289-40.819
	c-0.2-0.057-43.17-13.73-73.772,20.152c-8.046,8.909-12.979,15.664-12.979,15.664l-21.06,19.914
	c-0.38,1.516-0.599,8.082-0.599,9.672v36.171v16.222c0.107,1.309,0.156,2.663,0.156,4.05v6.467c0,0.628-0.063,1.239-0.156,1.841
	v0.832c0,5.125,4.154,9.279,9.279,9.279h29.354h4.108c6.601,0,11.952-5.351,11.952-11.952v-6.467c0-11.196-4.22-20.273-16.06-20.273
	v-17.959C96.144,374.674,98.324,369.614,102.17,365.976z"/>
<path style="fill:#DDB303;" d="M144.8,293.581c-9.411,11.482-22.3,27.005-28.053,33.73c-7.19,8.406-15.393,15.888-24.417,22.288
	l-23.09,16.376c-3.847,3.637-6.026,8.698-6.026,13.992v17.959l0,0c11.841,0,16.06,9.076,16.06,20.272v6.467
	c0,6.599-5.349,11.949-11.947,11.952h28.816h1.3h2.808c0.994,0,1.954-0.135,2.877-0.363c0.808-0.2,1.582-0.481,2.316-0.837
	c0.379-0.183,0.747-0.385,1.102-0.606c1.76-1.094,3.222-2.622,4.214-4.449c0.301-0.553,0.547-1.139,0.758-1.741
	c0.435-1.24,0.684-2.567,0.684-3.956v-6.467c0-2.099-0.148-4.124-0.467-6.028c-0.213-1.27-0.501-2.486-0.873-3.635
	c-2.042-6.319-6.58-10.609-14.72-10.609l0,0v-17.959l0,0c0-0.071,0.01-0.142,0.011-0.213c0.01-0.944,0.105-1.875,0.251-2.796
	c0.661-4.17,2.656-8.043,5.765-10.982l30.461-28.803c0,0,17.783-21.302,33.289-40.819
	C165.831,296.328,157.129,293.564,144.8,293.581z"/>
<path style="fill:#E2B700;" d="M464.453,211.281c-0.003,0.004-0.005,0.009-0.008,0.013c-3.506,14.055-12.149,26.086-24.024,33.562
	c-0.24,0.16-0.481,0.316-0.72,0.458c-1.016,0.617-2.048,1.21-3.108,1.759l-11.227,5.813c-6.313,3.268-13.176,4.903-20.039,4.903
	c-3.974,0-7.944-0.566-11.811-1.662l-8.274,28.748l8.081,118.604h0.014v0.18v0.004v25.171v4.242c0,0.421,0.038,0.832,0.092,1.238
	c0.014,0.103,0.03,0.204,0.047,0.306c0.064,0.378,0.144,0.75,0.252,1.111c0.007,0.022,0.01,0.045,0.017,0.066
	c0.12,0.389,0.27,0.764,0.437,1.13c0.034,0.073,0.069,0.145,0.105,0.218c0.171,0.348,0.356,0.686,0.568,1.008
	c0.007,0.01,0.012,0.021,0.019,0.031c0.23,0.347,0.485,0.676,0.759,0.989c0.03,0.034,0.062,0.067,0.092,0.102
	c0.563,0.624,1.206,1.174,1.918,1.627c0.014,0.009,0.029,0.017,0.044,0.027c0.362,0.228,0.74,0.433,1.134,0.61
	c1.152,0.518,2.425,0.813,3.768,0.816c0.009,0,0.019,0.001,0.028,0.001h29.354h4.109c6.601,0,11.952-5.351,11.952-11.952v-6.466
	c0-11.196-4.22-20.273-16.061-20.273l2.678-66.332C451.052,286.379,462.778,220.18,464.453,211.281z"/>
<path style="fill:#DDB303;" d="M431.971,403.662l2.678-66.332c16.404-50.951,28.129-117.15,29.805-126.049
	c-0.003,0.004-0.005,0.009-0.008,0.013c-3.506,14.055-12.149,26.086-24.024,33.562c-0.24,0.16-0.481,0.316-0.72,0.458
	c-1.016,0.617-2.048,1.21-3.108,1.759l-4.983,2.58c-3.106,22.612-7.568,49.17-10.626,53.971
	c-18.957,29.763-20.726,64.448-22.15,99.707l-0.013,0.331l0,0c11.84,0,16.06,9.077,16.06,20.273v6.466
	c0,6.599-5.348,11.949-11.947,11.952h29.036h4.109c0.372,0,0.738-0.022,1.101-0.056c0.108-0.01,0.214-0.024,0.321-0.037
	c0.124-0.015,0.245-0.038,0.368-0.056c0.142-0.021,0.285-0.038,0.425-0.065c0.103-0.02,0.207-0.038,0.31-0.06
	c0.348-0.075,0.692-0.16,1.028-0.264c0.001,0,0.001,0,0.001,0c0.338-0.105,0.667-0.229,0.99-0.363
	c0.095-0.039,0.188-0.082,0.282-0.123c0.119-0.052,0.233-0.112,0.35-0.168c0.115-0.056,0.233-0.108,0.346-0.167
	c0.091-0.048,0.183-0.094,0.273-0.144c0.302-0.168,0.598-0.344,0.884-0.537c0.002-0.001,0.004-0.003,0.006-0.004
	c0.14-0.095,0.27-0.203,0.406-0.304c0.139-0.104,0.283-0.203,0.418-0.313c0.079-0.064,0.156-0.131,0.234-0.197
	c0.195-0.166,0.384-0.338,0.567-0.515c0.073-0.071,0.147-0.141,0.218-0.213c0.174-0.177,0.338-0.364,0.501-0.551
	c0.061-0.07,0.128-0.135,0.188-0.207c0.003-0.003,0.006-0.007,0.009-0.01c0.206-0.25,0.396-0.512,0.582-0.778
	c0.01-0.015,0.022-0.029,0.033-0.044c0.059-0.085,0.114-0.172,0.17-0.258c0.14-0.214,0.273-0.433,0.399-0.656
	c0.051-0.089,0.102-0.178,0.15-0.269c0.163-0.306,0.317-0.618,0.453-0.94l0,0c0.021-0.05,0.037-0.102,0.056-0.153
	c0.042-0.102,0.075-0.208,0.114-0.312c0.114-0.304,0.218-0.612,0.307-0.927c0.092-0.325,0.173-0.655,0.24-0.99
	c0.065-0.336,0.12-0.675,0.156-1.02c0.001-0.01,0.003-0.018,0.004-0.028c0.041-0.402,0.062-0.81,0.062-1.222v-6.466
	C448.031,412.738,443.811,403.662,431.971,403.662z"/>
<g>
	<path style="fill:#FDBF00;" d="M0.21,269.914c1.335-12.55,9.758-21.943,18.813-20.979c9.055,0.964,15.313,11.918,13.977,24.468
		c-1.335,12.55-10.885,38.696-19.94,37.733S-1.126,282.464,0.21,269.914z"/>
	<path style="fill:#FDBF00;" d="M371.505,403.662l2.678-66.332c10.648-33.073,19.002-62.598,23.209-80.284
		c-4.156-0.776-8.233-2.158-12.103-4.162l-11.227-5.813c-14.704-7.613-25.222-21.888-28.503-38.686
		c-1.459-7.469-5.077-14.292-10.364-19.546c-7.801-7.752-12.217-18.506-12.217-29.753v-12.205H110.311
		c-39.563,0-71.635,32.072-71.635,71.635v39.488l-5.315,61.604c-0.316,3.665-1.929,7.096-4.548,9.679L9.787,348.043
		c-3.671,3.619-5.737,8.558-5.737,13.713v36.171v29.412c0,5.125,4.154,9.279,9.279,9.279h29.354h3.033
		c6.601,0,11.952-5.351,11.952-11.952v-6.467c0-11.196-3.144-20.272-14.985-20.272l0,0v-17.959c0-5.294,2.18-10.354,6.026-13.992
		l30.461-28.803c0,0,5.365-6.383,12.979-15.664c17.018-20.749,44.751-29.487,70.534-22.045
		c34.763,10.034,85.536,20.752,129.606,14.646c18.113-2.51,34.601,10.717,35.984,28.951l4.598,60.602v29.412
		c0,5.125,4.154,9.279,9.279,9.279h29.354h4.109c6.601,0,11.952-5.351,11.952-11.952v-6.466
		C387.565,412.738,383.345,403.662,371.505,403.662z"/>
</g>
<path style="fill:#FEDA2E;" d="M393.337,403.658v0.004v29.412c0,5.125,4.154,9.279,9.279,9.279h29.354h4.109
	c6.601,0,11.952-5.351,11.952-11.952v-6.466c0-11.196-4.22-20.273-16.06-20.273l0,0v-0.004L393.337,403.658L393.337,403.658z"/>
<path style="fill:#FDBF00;" d="M431.971,403.662L431.971,403.662v-0.004h-33.149v0.004l0,0c11.841,0,16.06,9.076,16.06,20.273v6.466
	c0,6.601-5.351,11.952-11.952,11.952h29.04h4.109c6.601,0,11.952-5.351,11.952-11.952v-6.466
	C448.031,412.738,443.811,403.662,431.971,403.662z"/>
<g>
	<path style="fill:#EDAF00;" d="M59.089,321.509c-7.613,9.282-12.979,15.664-12.979,15.664l-30.461,28.803
		c-3.847,3.637-6.026,8.698-6.026,13.992v17.959l0,0c11.841,0,14.985,9.076,14.985,20.273v6.467c0,6.487-5.172,11.755-11.616,11.935
		c0.113,0.004,0.223,0.017,0.336,0.017h29.354h3.033c6.601,0,11.952-5.351,11.952-11.952V418.2c0-11.196-3.144-20.273-14.985-20.273
		l0,0v-17.959c0-5.294,2.18-10.354,6.026-13.992l30.461-28.803c0,0,5.365-6.382,12.979-15.664
		c9.312-11.353,21.835-19.1,35.488-22.578C102.425,292.485,75.671,301.292,59.089,321.509z"/>
	<path style="fill:#EDAF00;" d="M371.505,403.662l2.678-66.332c10.648-33.073,19.002-62.598,23.209-80.284
		c-4.156-0.776-8.233-2.158-12.103-4.162l-4.145-2.146c-11.758,61.385-41.29,68.83-41.29,108.026l-1.812,44.897
		c11.841,0,16.06,9.077,16.06,20.273v6.466c0,6.601-5.35,11.951-11.951,11.952l0,0h29.354h4.109c6.601,0,11.952-5.351,11.952-11.952
		v-6.466C387.565,412.738,383.345,403.662,371.505,403.662z"/>
</g>
<path style="fill:#FEDA2E;" d="M96.144,397.927v-0.009H58.586l-1.074,0.002v0.007v29.412c0,5.125,4.154,9.279,9.279,9.279h29.354
	h4.108c6.601,0,11.952-5.351,11.952-11.952v-6.467C112.205,407.004,107.985,397.927,96.144,397.927z"/>
<path style="fill:#FDBF00;" d="M96.144,397.927v-0.009H63.215v0.009l0,0c11.841,0,16.06,9.076,16.06,20.273v6.467
	c0,6.601-5.351,11.952-11.952,11.952h28.82h4.108c6.601,0,11.952-5.351,11.952-11.952V418.2
	C112.205,407.004,107.985,397.927,96.144,397.927z"/>
<path style="fill:#FEDA2E;" d="M4.049,397.918v0.009v29.412c0,5.125,4.154,9.279,9.279,9.279h29.354h3.033
	c6.601,0,11.952-5.351,11.952-11.952v-6.467c0-11.196-3.144-20.273-14.985-20.273l0,0v-0.009H4.049V397.918z"/>
<path style="fill:#FDBF00;" d="M42.683,397.927L42.683,397.927v-0.009H9.623v0.009l0,0c11.841,0,14.985,9.076,14.985,20.273v6.467
	c0,6.487-5.172,11.755-11.616,11.935c0.108,0.004,0.214,0.015,0.323,0.016c0.005,0,0.009,0.001,0.014,0.001h29.354h3.033
	c0.539,0,1.065-0.048,1.584-0.117c0.47-0.062,0.93-0.154,1.381-0.269c2.069-0.529,3.923-1.588,5.401-3.038
	c0.027-0.027,0.058-0.05,0.085-0.077s0.051-0.057,0.077-0.085c0.776-0.791,1.447-1.687,1.981-2.669
	c0.007-0.012,0.012-0.026,0.018-0.038c0.422-0.784,0.749-1.624,0.989-2.501c0.172-0.628,0.306-1.271,0.374-1.935
	c0.041-0.402,0.062-0.809,0.062-1.222v-6.467C57.667,407.004,54.523,397.927,42.683,397.927z"/>
<path style="fill:#FEDA2E;" d="M332.871,403.658v0.004v29.412c0,5.125,4.154,9.279,9.279,9.279h29.354h4.109
	c6.601,0,11.952-5.351,11.952-11.952v-6.466c0-11.196-4.22-20.273-16.06-20.273l0,0v-0.004L332.871,403.658L332.871,403.658z"/>
<path style="fill:#FDBF00;" d="M387.097,417.906c-1.383-8.252-5.972-14.244-15.593-14.244v-0.001v-0.002H338.04v0.004
	c11.841,0,16.06,9.077,16.06,20.273v6.466c0,6.6-5.349,11.95-11.949,11.952h29.352h4.109c6.601,0,11.952-5.351,11.952-11.952v-6.466
	c0-0.7-0.016-1.391-0.05-2.073C387.447,420.499,387.31,419.176,387.097,417.906z"/>
<path style="fill:#FBB03B;" d="M45.303,157.662c-18.177,0-32.964,14.787-32.964,32.964v59.47c2.116-0.978,4.379-1.406,6.683-1.161
	c1.651,0.176,3.207,0.687,4.643,1.476v-59.785c0-11.932,9.706-21.638,21.638-21.638h13.282c4.147-4.33,8.826-8.143,13.942-11.326
	H45.303z"/>
<path id="SVGCleanerId_0" style="fill:#FECE00;" d="M467.921,95.069l-6.243-5.08c-11.752-9.564-26.44-14.785-41.592-14.785h-13.889
	l0,0l0,0h-13.889c-15.151,0-29.84,5.221-41.592,14.785l-6.243,5.08c-15.377,12.513-24.303,31.285-24.303,51.11v16.612
	c0,11.247,4.613,22.002,12.762,29.753c5.524,5.254,9.303,12.076,10.827,19.546c3.428,16.797,14.415,31.073,29.776,38.686
	l11.728,5.812c6.595,3.268,13.765,4.903,20.934,4.903c7.169,0,14.339-1.634,20.934-4.903l11.728-5.812
	c15.361-7.613,26.348-21.888,29.776-38.686c1.524-7.47,5.303-14.292,10.827-19.546c8.149-7.752,12.762-18.506,12.762-29.753v-16.612
	C492.224,126.354,483.298,107.582,467.921,95.069z"/>
<g>
	<path id="SVGCleanerId_0_1_" style="fill:#FECE00;" d="M467.921,95.069l-6.243-5.08c-11.752-9.564-26.44-14.785-41.592-14.785
		h-13.889l0,0l0,0h-13.889c-15.151,0-29.84,5.221-41.592,14.785l-6.243,5.08c-15.377,12.513-24.303,31.285-24.303,51.11v16.612
		c0,11.247,4.613,22.002,12.762,29.753c5.524,5.254,9.303,12.076,10.827,19.546c3.428,16.797,14.415,31.073,29.776,38.686
		l11.728,5.812c6.595,3.268,13.765,4.903,20.934,4.903c7.169,0,14.339-1.634,20.934-4.903l11.728-5.812
		c15.361-7.613,26.348-21.888,29.776-38.686c1.524-7.47,5.303-14.292,10.827-19.546c8.149-7.752,12.762-18.506,12.762-29.753
		v-16.612C492.224,126.354,483.298,107.582,467.921,95.069z"/>
</g>
<path style="fill:#FECE00;" d="M491.733,138.257c14.453-15.217,28.886-57.531,13.983-66.341
	c-15.245-9.011-45.865,11.525-49.544,14.064c-10.686-6.997-23.216-10.777-36.086-10.777h-13.889l0,0h-13.889
	c-12.871,0-25.4,3.781-36.086,10.777c-3.679-2.539-34.299-23.075-49.544-14.064c-14.903,8.81-0.47,51.124,13.983,66.341
	c0,0,0-0.003,0.001-0.004c-0.317,2.615-0.491,5.26-0.491,7.926v16.613c0,11.247,4.613,22.002,12.762,29.753
	c5.524,5.254,9.303,12.077,10.827,19.546c3.428,16.798,14.415,31.073,29.776,38.686l11.728,5.812
	c6.595,3.268,13.765,4.903,20.934,4.903s14.339-1.635,20.934-4.903l11.728-5.812c15.361-7.613,26.348-21.888,29.776-38.686
	c1.524-7.469,5.303-14.292,10.827-19.546c8.149-7.751,12.762-18.506,12.762-29.753v-16.613c0-2.666-0.174-5.311-0.491-7.926
	C491.733,138.254,491.733,138.256,491.733,138.257z M353.564,87.812c-0.066,0.048-0.134,0.094-0.2,0.142
	C353.431,87.906,353.498,87.859,353.564,87.812z M458.83,87.812c0.066,0.048,0.134,0.094,0.2,0.142
	C458.963,87.905,458.896,87.86,458.83,87.812z"/>
<path style="fill:#FDBF00;" d="M467.921,95.069l-6.243-5.08c-11.752-9.564-26.441-14.785-41.592-14.785h-13.889l0,0l0,0h-13.889
	c-0.915,0-1.828,0.021-2.739,0.059c14.176,0.59,27.811,5.74,38.853,14.726l6.243,5.08c15.377,12.513,24.303,31.285,24.303,51.11
	v16.612c0,11.247-4.613,22.002-12.762,29.753c-5.524,5.254-9.303,12.076-10.827,19.546c-3.428,16.797-14.415,31.073-29.776,38.686
	l-11.728,5.813c-1.409,0.698-2.85,1.307-4.306,1.856c5.358,2.021,10.991,3.047,16.628,3.047c7.169,0,14.339-1.634,20.934-4.903
	l11.728-5.813c15.36-7.613,26.348-21.888,29.776-38.686c1.524-7.47,5.303-14.292,10.827-19.546
	c8.149-7.752,12.762-18.506,12.762-29.753v-16.612C492.224,126.354,483.298,107.582,467.921,95.069z"/>
<g>
	<path style="fill:#513622;" d="M368.25,155.529h-4.025c-4.205,0-7.613,3.408-7.613,7.613s3.408,7.613,7.613,7.613h4.025
		c4.205,0,7.613-3.408,7.613-7.613S372.455,155.529,368.25,155.529z"/>
	<path style="fill:#513622;" d="M450.248,155.529h-4.025c-4.205,0-7.613,3.408-7.613,7.613s3.408,7.613,7.613,7.613h4.025
		c4.205,0,7.613-3.408,7.613-7.613S454.453,155.529,450.248,155.529z"/>
</g>
<path style="fill:#FCA800;" d="M447.99,221.319c2.705-5.755,3.406-12.525,1.295-19.256c-2.08-6.633-5.151-12.854-9.674-17.207
	c-7.185-6.916-15.025-19.898-21.304-31.684c-5.162-9.69-19.057-9.69-24.219,0c-6.279,11.786-14.119,24.768-21.304,31.684
	c-4.523,4.353-7.594,10.574-9.674,17.207c-2.111,6.731-1.41,13.5,1.295,19.256c-0.086,0.589-0.135,1.179-0.161,1.771
	c-0.007,0.153-0.004,0.307-0.007,0.46c-0.008,0.436-0.004,0.871,0.017,1.307c0.009,0.184,0.021,0.368,0.035,0.552
	c0.033,0.427,0.079,0.854,0.138,1.281c0.022,0.163,0.04,0.326,0.066,0.488c0.186,1.165,0.462,2.323,0.813,3.468
	c0.051,0.167,0.109,0.332,0.163,0.499c0.133,0.407,0.272,0.813,0.423,1.216c0.071,0.19,0.143,0.38,0.218,0.569
	c0.156,0.396,0.319,0.788,0.49,1.178c0.073,0.167,0.142,0.334,0.217,0.5c0.247,0.545,0.503,1.085,0.774,1.617
	c5.038,9.906,17.163,13.856,27.146,8.972l5.306-2.596l0,0l1.46-0.714c0.323-0.158,0.629-0.342,0.925-0.536
	c0.085-0.056,0.166-0.116,0.249-0.175c0.213-0.152,0.417-0.313,0.613-0.482c0.08-0.068,0.16-0.135,0.236-0.206
	c0.245-0.229,0.479-0.468,0.694-0.723c0.056-0.067,0.106-0.139,0.159-0.209c0.155-0.196,0.302-0.397,0.439-0.606
	c0.079-0.121,0.153-0.244,0.225-0.369c0.101-0.172,0.193-0.349,0.281-0.529c0.066-0.132,0.133-0.264,0.192-0.4
	c0.437-1.022,0.681-2.135,0.681-3.287l0.001-0.002v0.002c0,1.003,0.198,1.97,0.532,2.88c0.049,0.132,0.091,0.268,0.146,0.398
	c0.062,0.146,0.135,0.287,0.206,0.429c0.056,0.112,0.116,0.221,0.176,0.331c0.03,0.054,0.056,0.11,0.087,0.164
	c0.077,0.133,0.155,0.263,0.239,0.391c0.095,0.146,0.201,0.284,0.306,0.423c0.036,0.047,0.067,0.097,0.104,0.144
	c0.063,0.081,0.12,0.166,0.186,0.245c0.212,0.251,0.442,0.487,0.683,0.712c0.082,0.076,0.168,0.147,0.253,0.22
	c0.071,0.061,0.149,0.116,0.222,0.175c0.123,0.099,0.243,0.2,0.372,0.293c0.087,0.062,0.173,0.125,0.263,0.184
	c0.294,0.194,0.597,0.376,0.918,0.533l1.234,0.604l0,0l5.533,2.707c9.983,4.884,22.108,0.934,27.146-8.972
	c0.271-0.532,0.527-1.072,0.774-1.617c0.075-0.166,0.145-0.333,0.217-0.5c0.17-0.39,0.334-0.783,0.49-1.178
	c0.074-0.189,0.147-0.379,0.218-0.569c0.15-0.403,0.29-0.809,0.423-1.216c0.054-0.167,0.112-0.332,0.163-0.499
	c0.351-1.145,0.627-2.303,0.813-3.468c0.026-0.162,0.044-0.324,0.066-0.486c0.059-0.427,0.106-0.854,0.138-1.282
	c0.014-0.184,0.026-0.367,0.035-0.551c0.021-0.437,0.026-0.873,0.017-1.309c-0.003-0.153,0-0.306-0.007-0.459
	C448.125,222.499,448.076,221.908,447.99,221.319z"/>
<path style="fill:#FEF3CA;" d="M443.917,212.609c-14.154-16.365-37.72,1.769-37.72,1.769s-23.566-18.134-37.72-1.769
	c-6.37,7.365-4.677,16.165-0.888,23.615c5.038,9.906,17.163,13.856,27.146,8.972l6.767-3.311c2.872-1.405,4.694-4.324,4.694-7.521
	c0,3.198,1.821,6.116,4.694,7.521l6.768,3.311c9.983,4.884,22.108,0.934,27.146-8.972
	C448.594,228.774,450.287,219.974,443.917,212.609z"/>
<path style="fill:#EADAA7;" d="M447.053,217.756c-0.582,1.868-1.356,3.699-2.248,5.454c-5.038,9.906-17.163,13.856-27.146,8.972
	l-6.768-3.311c-2.872-1.405-4.694-4.324-4.694-7.521h-0.001c0,3.198-1.821,6.116-4.694,7.521l-6.768,3.311
	c-9.983,4.884-22.108,0.934-27.146-8.972c-0.892-1.755-1.666-3.586-2.248-5.454c-2.365,6.102-0.69,12.69,2.248,18.468
	c5.038,9.906,17.163,13.856,27.146,8.972l6.768-3.311c2.872-1.405,4.694-4.324,4.694-7.521l0.001-0.002v0.002
	c0,3.198,1.821,6.116,4.694,7.521l6.768,3.311c9.983,4.884,22.108,0.934,27.146-8.972
	C447.743,230.447,449.418,223.858,447.053,217.756z"/>
<path style="fill:#513622;" d="M430.155,198.741L430.155,198.741c-3.272-5.985-10.794-8.157-16.753-4.837l0,0
	c-4.479,2.496-9.931,2.496-14.41,0l0,0c-5.958-3.32-13.481-1.148-16.752,4.837l0,0c-3.314,6.064-0.975,13.667,5.175,16.819l0,0
	c3.095,1.586,5.474,4.254,6.802,7.469c1.742,4.217,5.895,7.185,10.741,7.185h1.191h0.099h1.191c4.846,0,8.999-2.968,10.741-7.185
	c1.328-3.214,3.707-5.882,6.802-7.469l0,0C431.13,212.408,433.469,204.804,430.155,198.741z"/>
<path style="fill:#3A2516;" d="M430.155,198.741L430.155,198.741c-3.272-5.985-10.794-8.157-16.753-4.837
	c-0.145,0.081-0.294,0.152-0.441,0.228c1.792,1.084,3.332,2.639,4.41,4.61l0,0c3.314,6.064,0.975,13.667-5.175,16.818l0,0
	c-3.095,1.586-3.776,4.347-5.103,7.562c-0.636,1.539-0.777,4.259-0.935,7.092h0.089h1.191c4.846,0,8.999-2.968,10.741-7.185
	c1.328-3.215,3.707-5.882,6.802-7.469C431.13,212.408,433.469,204.804,430.155,198.741z"/>
<g>
	<path style="fill:#FDEA96;" d="M338.164,100.961c-5.206-6.31-18.915-17.444-24.589-14.09c-9.359,5.533-0.002,32.436,9.07,41.439
		C325.518,118.117,330.833,108.727,338.164,100.961z"/>
	<path style="fill:#FDEA96;" d="M489.748,128.311c9.073-9.004,18.43-35.907,9.071-41.439c-5.674-3.354-19.383,7.781-24.589,14.09
		C481.561,108.727,486.876,118.117,489.748,128.311z"/>
</g>
<g>
</g>
<g>
</g>
<g>
</g>
<g>
</g>
<g>
</g>
<g>
</g>
<g>
</g>
<g>
</g>
<g>
</g>
<g>
</g>
<g>
</g>
<g>
</g>
<g>
</g>
<g>
</g>
<g>
</g>
</svg>
