<?xml version="1.0" encoding="iso-8859-1"?>
<!-- Generator: Adobe Illustrator 19.0.0, SVG Export Plug-In . SVG Version: 6.00 Build 0)  -->
<svg version="1.1" id="Capa_1" xmlns="http://www.w3.org/2000/svg" xmlns:xlink="http://www.w3.org/1999/xlink" x="0px" y="0px"
	 viewBox="0 0 512 512" style="enable-background:new 0 0 512 512;" xml:space="preserve">
<g>
	<path style="fill:#858384;" d="M299.846,13.249C295.16,5.058,286.458,0,277.021,0h-42.042c-9.437,0-18.139,5.058-22.825,13.249
		c-6.088,10.645-13.716,26.571-16.591,43.52h120.873C313.561,39.822,305.934,23.894,299.846,13.249z"/>
	<path style="fill:#858384;" d="M458.654,115.353c2.48-9.106-0.098-18.835-6.77-25.508l-29.728-29.728
		c-6.673-6.674-16.403-9.25-25.508-6.77c-11.833,3.221-28.488,9.09-42.504,19.042l85.47,85.47
		C449.564,143.841,455.432,127.185,458.654,115.353z"/>
	<path style="fill:#858384;" d="M498.751,299.846C506.942,295.16,512,286.458,512,277.021v-42.042
		c0-9.437-5.058-18.139-13.249-22.825c-10.645-6.088-26.571-13.716-43.52-16.591v120.873
		C472.178,313.561,488.106,305.934,498.751,299.846z"/>
	<path style="fill:#858384;" d="M396.646,458.654c9.106,2.48,18.835-0.098,25.508-6.77l29.728-29.728
		c6.673-6.673,9.25-16.403,6.77-25.508c-3.221-11.833-9.09-28.488-19.042-42.504l-85.47,85.47
		C368.159,449.564,384.815,455.432,396.646,458.654z"/>
	<path style="fill:#858384;" d="M212.154,498.751C216.84,506.942,225.542,512,234.979,512h42.042
		c9.438,0,18.139-5.058,22.825-13.249c6.088-10.645,13.716-26.571,16.591-43.52H195.563
		C198.439,472.178,206.066,488.106,212.154,498.751z"/>
	<path style="fill:#858384;" d="M53.346,396.646c-2.48,9.106,0.098,18.835,6.77,25.508l29.728,29.728
		c6.674,6.673,16.403,9.25,25.508,6.77c11.833-3.221,28.488-9.09,42.504-19.042l-85.47-85.47
		C62.436,368.159,56.568,384.815,53.346,396.646z"/>
	<path style="fill:#858384;" d="M13.249,212.154C5.058,216.84,0,225.542,0,234.979v42.042c0,9.438,5.058,18.139,13.249,22.825
		c10.645,6.088,26.571,13.716,43.52,16.591V195.563C39.822,198.439,23.894,206.066,13.249,212.154z"/>
	<path style="fill:#858384;" d="M115.353,53.346c-9.106-2.48-18.835,0.098-25.508,6.77L60.116,89.844
		c-6.674,6.674-9.25,16.403-6.77,25.508c3.221,11.833,9.09,28.488,19.042,42.504l85.47-85.47
		C143.841,62.436,127.185,56.568,115.353,53.346z"/>
</g>
<path style="fill:#BAB8B9;" d="M256,47.85C141.042,47.85,47.85,141.042,47.85,256S141.042,464.15,256,464.15
	S464.15,370.958,464.15,256S370.958,47.85,256,47.85z M256,344.111c-48.663,0-88.111-39.449-88.111-88.111
	s39.449-88.111,88.111-88.111s88.111,39.449,88.111,88.111S304.663,344.111,256,344.111z"/>
<path style="fill:#9E9C9D;" d="M89.057,256c0-108.004,82.261-196.789,187.547-207.135c-6.779-0.666-13.65-1.014-20.604-1.014
	c-114.958,0-208.15,93.191-208.15,208.15c0,114.958,93.192,208.15,208.15,208.15c6.954,0,13.825-0.348,20.604-1.014
	C171.318,452.789,89.057,364.004,89.057,256z"/>
<g>
	<path style="fill:#3A484A;" d="M199.745,124.392c-4.268,0-7.726-3.459-7.726-7.726v-10.181c0-4.267,3.458-7.726,7.726-7.726
		c4.268,0,7.726,3.459,7.726,7.726v10.181C207.471,120.933,204.013,124.392,199.745,124.392z"/>
	<path style="fill:#3A484A;" d="M312.254,124.392c-4.268,0-7.726-3.459-7.726-7.726v-10.181c0-4.267,3.458-7.726,7.726-7.726
		c4.268,0,7.726,3.459,7.726,7.726v10.181C319.98,120.933,316.522,124.392,312.254,124.392z"/>
	<path style="fill:#3A484A;" d="M256,129.827c-7.641,0-14.822-3.202-19.702-8.784c-2.808-3.213-2.48-8.094,0.734-10.902
		c3.212-2.808,8.093-2.481,10.902,0.732c1.945,2.225,4.884,3.502,8.066,3.502c3.182,0,6.121-1.276,8.067-3.502
		c2.808-3.213,7.689-3.541,10.901-0.732c3.213,2.808,3.542,7.689,0.732,10.902C270.822,126.625,263.641,129.827,256,129.827z"/>
</g>
<g>
</g>
<g>
</g>
<g>
</g>
<g>
</g>
<g>
</g>
<g>
</g>
<g>
</g>
<g>
</g>
<g>
</g>
<g>
</g>
<g>
</g>
<g>
</g>
<g>
</g>
<g>
</g>
<g>
</g>
</svg>
