<?xml version="1.0" encoding="UTF-8" standalone="no"?>
<svg
   xmlns:dc="http://purl.org/dc/elements/1.1/"
   xmlns:cc="http://creativecommons.org/ns#"
   xmlns:rdf="http://www.w3.org/1999/02/22-rdf-syntax-ns#"
   xmlns:svg="http://www.w3.org/2000/svg"
   xmlns="http://www.w3.org/2000/svg"
   viewBox="0 0 1122.52 793.70667"
   height="793.70667"
   width="1122.52"
   xml:space="preserve"
   id="svg2"
   version="1.1"><metadata
     id="metadata8"><rdf:RDF><cc:Work
         rdf:about=""><dc:format>image/svg+xml</dc:format><dc:type
           rdf:resource="http://purl.org/dc/dcmitype/StillImage" /></cc:Work></rdf:RDF></metadata><defs
     id="defs6" /><g
     transform="matrix(1.3333333,0,0,-1.3333333,0,793.70667)"
     id="g10"><g
       transform="scale(0.1)"
       id="g12"><path
         id="path14"
         style="fill:#dcf2a0;fill-opacity:1;fill-rule:nonzero;stroke:none"
         d="M 8418.98,0 H 0 V 5952.8 H 8418.98 V 0" /><path
         id="path16"
         style="fill:#aac634;fill-opacity:1;fill-rule:nonzero;stroke:none"
         d="m 3335.06,5285.11 h 531.76 c -46.18,-98.9 -72.75,-208.79 -72.75,-325.12 0,-399.3 304.14,-727.49 693.51,-765.82 2.68,-177.98 198.06,-495.92 648.43,-495.92 h 519.3 214.42 c 222.27,-275.66 562.7,-452.07 944.38,-452.07 580.46,0 1065.57,407.88 1184.55,952.66 162.14,23.96 307.66,98.58 420.32,207.07 V 5952.8 H 2575.02 c 93.83,-459.54 760.04,-667.69 760.04,-667.69" /><path
         id="path18"
         style="fill:#cfd645;fill-opacity:1;fill-rule:nonzero;stroke:none"
         d="m 1010.03,2087.95 c 0.61,1.6 1.19,3.19 1.8,4.78 3.23,0.71 6.47,1.49 9.72,2.21 -3.84,-2.35 -7.7,-4.62 -11.52,-6.99 z m -27.432,-5.8 c 2.793,1.25 5.605,2.46 8.398,3.71 1.309,-0.84 2.617,-1.7 3.945,-2.56 -4.113,-0.35 -8.23,-0.76 -12.343,-1.15 z M 2721.74,1857.52 c -237.26,125.85 -498.78,214.93 -778.18,258.56 275.79,62.71 530.65,169.49 758.76,311.32 -284.26,45.19 -581.24,41.42 -879.98,-18.95 -17.56,-3.55 -35.05,-7.31 -52.47,-11.22 15.1,9.2 30.15,18.53 45.12,28.09 256.85,164.01 473.18,367.47 646.36,597.4 -262.63,-56.34 -520.22,-156.49 -762.21,-302.89 170.76,225.42 297.13,471.14 380.45,726.47 -229.46,-137.99 -440.06,-315.53 -621.13,-531.57 87.9,267.82 127.56,540.38 123.67,808.11 -170.37,-202.56 -310.7,-435.72 -411.74,-695.15 -6.36,273.66 -57.07,536.57 -145.42,781.7 -96.618,-250.64 -153.837,-521.01 -163.759,-803.68 -95.176,266.28 -231.668,506.51 -399.68,716.03 -10.136,-267.57 23.164,-540.96 104.797,-810.73 -165,206.35 -356.672,379.55 -566.328,518.46 v -99.96 C 73.8203,3125.23 175.723,2927.68 306.621,2742.34 207.012,2804.95 104.539,2859.53 0,2906.4 v -317.56 c 45.9063,-37.67 93.3789,-74.06 142.59,-108.85 -47.5197,11.37 -95.0705,21.2 -142.59,29.69 v -309.42 c 21.6602,-6.98 43.4258,-13.78 65.4023,-20.2 C 43.4961,2178 21.7188,2175.54 0,2172.93 v -304.24 c 49.0039,0.54 98.2539,2.37 147.773,5.84 17.84,1.24 35.625,2.72 53.332,4.33 -16.093,-7.12 -32.179,-14.43 -48.183,-21.96 C 100.676,1832.38 49.6992,1806.25 0,1778.63 v -316.54 c 77.2266,25.26 153.906,54.43 229.766,87.82 C 145.723,1464.56 69.1914,1374.53 0,1280.71 v -280.34 c 156.395,89.92 305.234,198.22 443.262,325.19 -121.719,-254.2 -196.211,-519.349 -226.914,-785.361 212.175,194.531 393.879,429.43 532.39,700.911 137.59,269.69 220.918,552.81 254.332,836.91 l 1.71,-1.11 0.27,-0.34 v 0.17 l 0.15,-0.1 -0.15,0.47 0.06,2.01 0.79,-2.26 0.95,2.51 c 110.54,-261.29 267.94,-507.96 473.03,-727.19 208.19,-222.58 447.82,-398.078 705.5,-526.34 -109.54,262.66 -266.42,510.68 -471.12,731.33 271.85,-134.46 556.5,-214.34 841.55,-244.09 -183.1,195.37 -400.92,363.95 -650.12,495.62 280.3,-29.68 555.11,-11.21 816.05,48.82" /><path
         id="path20"
         style="fill:#81a53a;fill-opacity:1;fill-rule:nonzero;stroke:none"
         d="m 5624.43,29.8594 c -17.27,-3.5 -34.46,-7.1875 -51.58,-11.0196 14.85,9.0313 29.63,18.211 44.35,27.6016 252.54,161.2696 465.25,361.3086 635.51,587.3906 -258.22,-55.41 -511.48,-153.883 -749.42,-297.82 167.91,221.636 292.16,463.25 374.07,714.278 -225.61,-135.669 -432.66,-310.239 -610.7,-522.642 86.42,263.301 125.41,531.312 121.59,794.542 -167.51,-199.16 -305.48,-428.409 -404.82,-683.479 -6.25,269.07 -56.13,527.569 -142.99,768.579 -94.99,-246.43 -151.24,-512.27 -161.01,-790.188 -93.58,261.808 -227.77,498.008 -392.97,703.998 -9.97,-263.08 22.77,-531.858 103.03,-797.12 -173.05,216.442 -375.95,395.77 -598.33,536.66 73.81,-245.331 187.73,-482.628 342.99,-702.492 -231.73,145.653 -479.13,247.614 -732.31,307.774 153.77,-213.711 344.74,-405.711 571.03,-565.731 -269.51,64.528 -539.84,81.411 -801.86,55.981 C 3250.98,99.4297 3334.86,47.2188 3422.37,0 h 2985.68 c 27.57,15.6797 54.77,31.8203 81.6,48.4883 -279.5,44.4336 -571.5,40.7226 -865.22,-18.6289" /><path
         id="path22"
         style="fill:#b5b252;fill-opacity:1;fill-rule:nonzero;stroke:none"
         d="m 6150.52,2945.52 c -50.03,-0.01 -159.49,0 -381.45,0 -414.02,0 -732.76,102.21 -781.26,519.35 -20.52,176.47 -84.34,441.96 -112.69,704.33 -89.77,830.68 -992.72,927.21 -992.72,927.21 0,0 -489.15,106.74 -1077.13,279.08 -284.19,83.3 -395.9,361.24 -439.72,577.31 h -208.67 c 92.62,-751.31 791,-843.18 791,-843.18 0,0 752.21,-200.74 1118.66,-306.04 207.43,-59.59 428.35,-86.49 538.14,-663.07 54.82,-288 75.6,-655.16 125.88,-972.99 115.85,-732.4 1088.7,-718.53 1088.7,-718.53 0,0 210.18,2.57 421.59,0 C 7365,2435.29 7268.77,1197.58 7268.77,1197.58 L 7257.63,0 h 620.8 l 10.67,1544.33 c 0,1064.96 -1109.01,1401.37 -1738.58,1401.19" /><path
         id="path24"
         style="fill:#598225;fill-opacity:1;fill-rule:nonzero;stroke:none"
         d="m 7043.47,1310.6 c 0.38,1.85 0.74,3.7 1.12,5.56 3.44,1.34 6.86,2.74 10.28,4.09 -3.79,-3.22 -7.62,-6.41 -11.4,-9.65 z m -32.43,-13.04 c 3.35,2.16 6.73,4.29 10.06,6.48 1.87,-0.82 3.73,-1.67 5.61,-2.49 -5.23,-1.29 -10.44,-2.69 -15.67,-3.99 z m 1407.94,209.6 c -89.34,7.88 -179.74,11.95 -271.09,11.76 93.32,37.33 183.68,78.99 271.09,124.47 v 333.37 c -157.65,-30.91 -314.88,-74.85 -470.38,-132.72 -19.97,-7.43 -20.06,-7.28 -39.78,-15.1 16.33,13.86 12.85,20.08 28.95,34.36 186.01,164.9 346.43,347.87 481.21,543.85 v 214.6 c -237.98,-109.9 -465.1,-252.94 -674.55,-429.76 160.73,300.48 264.82,616.69 315.89,936.23 -247.08,-207.44 -464.27,-458.46 -639.07,-749.67 54.15,335.29 50.01,667.17 -5.07,985.1 -164.57,-273.16 -287.62,-577.1 -359.02,-904.82 -59.15,324.47 -169.07,627.75 -320.4,902.81 -67.53,-315.46 -84.71,-646.88 -43.78,-984.04 -163.25,297.83 -370.38,557.14 -609.09,774.16 38.49,-321.33 130.04,-641.44 278.85,-947.97 -251.59,229.94 -532.47,408.83 -829.62,537.16 136.37,-282.8 319.76,-548.21 549.82,-784.57 -308.43,131.92 -627.4,207.89 -945.42,232.2 227.09,-229.21 495.05,-425.03 799.63,-575.33 -338.61,26.45 -669.04,-4.93 -981.35,-85.95 289.96,-143.7 607.99,-242.28 946,-285.54 -330.12,-84.67 -633.62,-221.8 -903.68,-400.229 343.92,-44.98 701.47,-30.511 1059.3,52.098 20.83,4.812 41.54,9.871 62.17,15.101 -18.05,-11.679 -36.03,-23.539 -53.91,-35.671 C 5761.75,666.969 5507.98,414.68 5307,131.969 5621.48,208.59 5928.41,337.77 6215.02,522.172 6095.86,355.512 5996.43,180.492 5916,0 h 327.47 c 94.56,91.2891 184.19,189.711 267.92,295.422 C 6482.14,197.219 6458.28,98.6406 6439.46,0 h 356.44 c 34.4,80.4922 65.64,163.121 93.38,247.891 3.95,-83.649 11.47,-166.2894 22.11,-247.891 h 351.26 c 4.42,91.2617 4.75,183.512 0.73,276.59 -15.61,361.39 -95.04,704.871 -226.55,1020.46 0.98,-0.43 1.97,-0.89 2.96,-1.32 l -1.27,2.55 1.73,-1.61 0.29,-0.52 0.05,0.21 0.14,-0.13 -0.07,0.53 0.48,2.39 c 272.62,-210.94 586.49,-378.091 934.59,-487.189 147.22,-46.172 295.31,-80.18 443.25,-102.902 v 335.111 c -83.7,37.51 -169.73,71.6 -258.16,101.79 87.14,4.5 173.23,12.77 258.16,24.53 v 336.67" /><path
         id="path26"
         style="fill:#598225;fill-opacity:1;fill-rule:nonzero;stroke:none"
         d="m 7716.71,0 c -8.3,111.25 -19.55,249.352 -33.41,397.379 -20,213.68 -648.87,1020.011 -671.17,1049.741 l -71.99,-54.03 c 5.31,-7.07 531.2,-711.289 560.83,-1045.852 C 7512.63,215.551 7515.35,96.6719 7514.31,0 h 202.4" /><path
         id="path28"
         style="fill:#7ba33b;fill-opacity:1;fill-rule:nonzero;stroke:none"
         d="M 4695.88,5952.8 C 3846.96,4885.04 2536.81,4200.42 1066.69,4200.42 709.23,4200.42 334.23,4240.92 0,4317.56 v -108.55 c 334.602,-74.88 709.512,-114.48 1066.69,-114.48 1533.73,0 2897.31,728.47 3763.64,1858.27 h -134.45" /><path
         id="path30"
         style="fill:#7ba33b;fill-opacity:1;fill-rule:nonzero;stroke:none"
         d="M 4159.79,5952.8 C 3393.25,4450.98 1831.66,3422.61 29.8438,3422.61 c -0.9649,0 -28.9063,0.02 -29.8438,0.02 v -105.88 c 0.9375,0 28.8789,-0.01 29.8438,-0.01 1862.1462,0 3473.4762,1073.83 4248.5362,2636.06 h -118.59" /><path
         id="path32"
         style="fill:#a09332;fill-opacity:1;fill-rule:nonzero;stroke:none"
         d="m 903.457,5160.16 c 0.059,-0.8 0.645,-15.11 -0.078,-39.34 z m -40.156,-1004.5 c 41.738,26.9 194.109,164.4 429.999,320.55 230.57,152.63 533.23,509.16 539.59,835.03 12.12,621.4 8.22,641.56 8.22,641.56 H 1683.3 c 0,0 2.86,-213.34 0,-513.25 -1.35,-141.85 -35,-328.34 -295.84,-502.03 -116.43,-77.53 -236.83,-152.52 -424.804,-272.94 65.704,218.05 61.124,410.18 60.644,458.77 V 5952.8 H 903.301 v -834.58 c -4.129,-126.08 -43.516,-504.84 -355.84,-695.29 -53.184,-28.59 -105.996,-58 -156.66,-89.91 86.777,386.46 78.75,730.8 75.793,784.9 v 834.88 h -165.91 v -837.41 l 0.214,-5.49 C 301.367,5104.1 335.105,5094.19 0,4555.28 V 3666.41 3598.57 3504.3 0 h 491.797 l -8.496,3261.21 c 0,0 -60.86,610.36 380,894.45" /><path
         id="path34"
         style="fill:#a09332;fill-opacity:1;fill-rule:nonzero;stroke:none"
         d="m 8027.26,3382.64 c -461.65,975.24 -1675.4,928.23 -1675.4,928.23 -47.65,0 -151.86,0 -363.18,0 -394.19,0 -697.66,97.3 -743.84,494.46 -19.54,168.02 -80.3,420.79 -107.29,670.6 -21.69,200.68 -93.27,356.27 -187.96,476.87 h -295.31 c 92.2,-81.42 172.66,-225.21 225.78,-504.2 52.21,-274.2 71.98,-623.77 119.85,-926.38 110.3,-697.31 1036.55,-684.11 1036.55,-684.11 0,0 200.1,0 401.4,0 787.52,0 974.83,-1160.76 974.83,-1160.76 L 7878.43,0 h 540.55 v 2531.41 c -187.14,409.31 -337.24,736.13 -391.72,851.23" /><path
         id="path36"
         style="fill:#699e25;fill-opacity:1;fill-rule:nonzero;stroke:none"
         d="m 2820.76,832.34 c 263.99,130.269 496.25,300.02 693.06,498.67 -275.65,-21.07 -552.12,-86.93 -819.46,-201.25 199.41,204.87 358.36,434.92 476.58,680.04 -257.58,-111.23 -501.02,-266.29 -719.09,-465.58 128.97,265.7 208.35,543.15 241.69,821.66 -206.91,-188.1 -386.45,-412.86 -527.93,-671.01 35.45,292.23 20.57,579.49 -37.97,852.92 -131.17,-238.4 -226.43,-501.31 -277.7,-782.56 -61.88,284.07 -168.54,547.53 -311.2,784.3 -47.74,-275.55 -51.34,-563.19 -4.4,-853.82 -151.52,252.41 -339.74,469.97 -553.91,649.78 44.26,-277 134.47,-551.07 273.8,-811.53 -225.72,190.56 -475.082,335.94 -736.808,436.97 141.094,-265.46 331.035,-510.71 569.218,-721.85 13.96,-12.38 28.03,-24.54 42.19,-36.56 -17.08,6.77 -34.26,13.43 -51.58,19.86 C 778.945,1143.41 473.23,1195.85 172.578,1195.66 384.734,1012.09 630.242,860.281 904.531,750.57 609.172,751.191 324.805,702.031 59.5117,610.949 318.848,506.398 599.355,442.461 893.328,427.309 614.758,332.191 362.539,193.859 141.73,22.2305 441.953,6.26953 750,42.5391 1053.74,137.789 c 233.49,73.18 449.1,176.609 644.25,304.32 C 1565.3,314.59 1461.56,201.281 1398.6,0 h 129.91 c 41.2,160.27 118.88,295.609 232.53,404.262 22.29,21.297 45.5,41.117 69.43,59.597 C 1775.32,315.391 1733.4,160.309 1706.02,0 h 1251.13 c -77.81,67.6406 -160.37,131.461 -247.83,190.781 -15.5,10.5 -31.08,20.77 -46.7,30.891 17.87,-4.52 35.82,-8.91 53.87,-13.082 310.13,-71.598 620.05,-84.141 918.17,-45.168 -234.08,154.66 -497.13,273.508 -783.25,346.918 292.97,37.5 568.6,122.941 819.93,247.5 -270.7,70.219 -557.09,97.43 -850.58,74.5" /><path
         id="path38"
         style="fill:#a09332;fill-opacity:1;fill-rule:nonzero;stroke:none"
         d="m 6541.89,5393.53 c -2.54,-325.92 381.9,-576.06 612.47,-728.7 235.88,-156.15 342.64,-256.89 381.03,-288.39 343.7,-281.83 361.06,-822.06 361.06,-822.06 l -1.62,-1460.65 524.15,184.33 v 1478.99 c -37.81,533.15 -466.69,893.28 -792.86,1095.94 -151.66,94.22 -565.11,364.23 -722.3,461.17 -154.85,95.5 -173.01,279.8 -174.36,421.66 -0.91,95.06 -33.06,165.31 -81.94,216.98 h -347.76 c 135.3,-78.14 244.73,-226.25 242.13,-559.27" /><path
         id="path40"
         style="fill:#6d401b;fill-opacity:1;fill-rule:nonzero;stroke:none"
         d="M 3739.13,2580.51 H 3612.62 V 4162.4 h 126.51 V 2580.51" /><path
         id="path42"
         style="fill:#6d401b;fill-opacity:1;fill-rule:nonzero;stroke:none"
         d="M 3321,2606.02 2815.92,2294.9 c -26.04,-16.04 -59.42,-14.95 -84.33,2.77 l -394.01,280.41 -96.37,-96.35 447.27,-325.86 c 49.23,-35.87 115.81,-37.91 167.13,-5.16 l 594.33,379.2 -128.94,76.11" /><path
         id="path44"
         style="fill:#6d401b;fill-opacity:1;fill-rule:nonzero;stroke:none"
         d="m 4237.23,2323.53 c 85.35,-85.36 85.33,-223.73 0,-309.06 l -101.88,-101.88 c -85.31,-85.31 -223.71,-85.33 -309.04,0 l -344.37,435 c -85.33,85.36 -85.33,223.75 0,309.05 l 5.33,29.23 c 85.3,85.33 223.68,85.33 309.01,0 l 440.95,-362.34" /><path
         id="path46"
         style="fill:#cc9675;fill-opacity:1;fill-rule:nonzero;stroke:none"
         d="m 3990.97,2992.92 c 0,-104.99 -85.08,-190.05 -190.03,-190.05 -104.91,0 -190,85.06 -190,190.05 0,104.89 85.09,189.99 190,189.99 104.95,0 190.03,-85.1 190.03,-189.99" /><path
         id="path48"
         style="fill:#cc9675;fill-opacity:1;fill-rule:nonzero;stroke:none"
         d="m 2983.24,2992.92 c 0,-104.99 -85.08,-190.05 -189.98,-190.05 -104.98,0 -190.03,85.06 -190.03,190.05 0,104.89 85.05,189.99 190.03,189.99 104.9,0 189.98,-85.1 189.98,-189.99" /><path
         id="path50"
         style="fill:#82572e;fill-opacity:1;fill-rule:nonzero;stroke:none"
         d="m 3800.94,2995.69 c 0,278.26 -225.58,503.84 -503.84,503.84 -278.27,0 -503.84,-225.58 -503.84,-503.84 0,-164.67 79.01,-310.82 201.09,-402.77 23.25,-17.49 39.28,-43.87 39.28,-73 v -14.25 c 0,-122.53 99.33,-221.85 221.87,-221.85 h 83.19 c 122.56,0 221.88,99.32 221.88,221.85 v 14.25 c 0,29.13 16.01,55.51 39.27,73 122.12,91.95 201.1,238.1 201.1,402.77" /><path
         id="path52"
         style="fill:#dec8a9;fill-opacity:1;fill-rule:nonzero;stroke:none"
         d="m 3479.07,3161.64 c -63.87,0 -120.74,-29.71 -157.73,-76.01 -12.47,-15.53 -36.05,-15.53 -48.49,0 -37,46.3 -93.86,76.01 -157.72,76.01 -111.72,0 -202.29,-90.6 -202.29,-202.3 0,-166.18 181.74,-178.8 202.29,-202.25 14.24,-16.31 -7.52,-196.97 -7.52,-196.97 0,-94.71 94.81,-171.46 189.49,-171.46 94.7,0 189.52,76.75 189.52,171.46 0,0 -12.61,179.83 -7.55,196.97 10.15,34.27 202.28,48.79 202.28,202.25 0,111.7 -90.57,202.3 -202.28,202.3" /><path
         id="path54"
         style="fill:#6d401b;fill-opacity:1;fill-rule:nonzero;stroke:none"
         d="m 4173.91,2057.35 c -13.42,56.15 3.18,115.66 43.74,156.75 l 278.01,282.48 c 86.04,94.62 205.1,35.86 197.65,-71.47 l -0.02,-548.53 c 0.02,-35.59 -28.84,-64.41 -64.43,-64.41 -35.58,0 -64.43,28.82 -64.43,64.41 l 0.48,431.64 c 2.24,35.76 -26.4,7.11 -26.4,7.11 L 4257.12,2036.7 c -25.87,-29.36 -74.09,-17.36 -83.21,20.65" /><path
         id="path56"
         style="fill:#cc9675;fill-opacity:1;fill-rule:nonzero;stroke:none"
         d="m 4564.28,1876.69 c 0,-35.66 25.68,-64.52 57.35,-64.52 h 313.75 c 33.54,0 65.36,26.97 52.43,57.92 -11.43,27.35 -40.97,71.13 -112.89,71.13 H 4564.5 c 5.93,0 -0.2,-28.92 -0.22,-64.53" /><path
         id="path58"
         style="fill:#cc9675;fill-opacity:1;fill-rule:nonzero;stroke:none"
         d="m 2408.11,2571.76 -14.27,209.16 c -1.5,22.07 -20.62,38.76 -42.69,37.24 -22.1,-1.5 -38.76,-20.61 -37.28,-42.71 l 6.73,-98.56 -123.4,164.39 c -14.68,19.67 -39.91,25.67 -56.42,13.27 -16.51,-12.29 -18.05,-38.21 -3.36,-57.86 l 77.07,-103.2 c -0.96,-0.52 -2.02,-0.84 -2.91,-1.42 l -121.77,114.41 c -17.54,16.47 -42.94,17.89 -56.78,3.19 -13.87,-14.77 -10.92,-40.09 6.54,-56.55 l 119.92,-117.22 -0.16,-0.19 -124.1,79.34 c -18.75,11.97 -42.71,7.88 -53.63,-9.13 -10.89,-17.08 -4.57,-40.63 14.11,-52.61 l 123.8,-84.37 -117.99,46.15 c -17.76,2.31 -34.18,-11.43 -36.67,-30.68 -2.45,-19.21 9.97,-36.76 27.68,-39.04 l 244.83,-119.17 0.24,0.1 c 35.31,-17.43 73.59,-15.28 94.47,8.7 l 65.08,74.59 c 14.15,16.23 17.16,39.03 10.96,62.17" /><path
         id="path60"
         style="fill:#6d401b;fill-opacity:1;fill-rule:nonzero;stroke:none"
         d="m 4480.71,1849.45 c -26.5,23.73 -67.26,21.46 -90.96,-5.08 l -305.67,-341.78 c -8.29,-9.25 -26.01,-15.65 -32.4,10.12 v 581.02 H 3906.9 l 2.33,-587.03 c 0,-170.04 134.85,-250.51 260.13,-102.05 l 316.44,353.84 c 23.7,26.51 21.44,67.23 -5.09,90.96" /><path
         id="path62"
         style="fill:#cc9675;fill-opacity:1;fill-rule:nonzero;stroke:none"
         d="m 4389.55,1844.43 c 23.77,26.52 62.17,30.92 85.77,9.83 L 4749.92,1605 c 25.37,-23.03 30.75,-66.15 -1.4,-78.01 -55.53,-20.45 -133.26,29 -153.2,46.83 l -248.13,222.96 c 0,0 18.63,21.08 42.36,47.65" /><path
         id="path64"
         style="fill:#598225;fill-opacity:1;fill-rule:nonzero;stroke:none"
         d="M 3341.93,5200.05 C 3181.91,5308.47 2959.28,5381.3 2922.8,5381.3 H 0 v -826.02 l 444.746,-514.1 c 71.543,-63.21 179.016,-7.46 177.754,92.22 l -1.816,147.69 c -0.586,46.52 51.308,70.55 82.246,38.12 l 637.26,-668.52 c 61.86,-64.89 165.65,-16.79 164.5,76.22 l -7.35,588.54 c -0.58,46.5 51.34,70.53 82.27,38.11 l 657.68,-689.92 c 61.83,-64.86 165.68,-16.78 164.51,76.24 l -7.4,592.34 c -0.59,46.51 51.32,70.53 82.24,38.09 l 518.93,-429.85 c 58.29,-61.18 171.45,-55.66 165.18,31.76 v 391.65 c -3.99,55.72 49.6,95.19 96.31,70.8 l 472.9,-246.29 c 69.7,-36.29 169.05,-9.65 167.46,98.96 0,0 1.62,57.97 -13.57,186.95 -6.81,57.78 -65.26,402.84 -541.92,725.76" /><path
         id="path66"
         style="fill:#699e25;fill-opacity:1;fill-rule:nonzero;stroke:none"
         d="m 4091.96,5040.86 c -30.9,104.68 -131.33,364.95 -416.08,582.3 -223.51,170.6 -525.94,302.85 -715.39,329.64 L 0,5808.13 V 4822.9 l 587.324,-571.78 c 63.145,-61.47 161.602,-15.89 160.43,72.2 v 557.2 c 17.195,20.52 50.234,25.68 72.598,3.9 l 283.938,-276.41 398.81,-452.08 c 63.12,-61.44 169.12,-15.89 167.92,72.23 v 668.6 c -0.19,13.88 4.19,25.64 11.27,34.27 11.58,-0.26 23.29,-4.63 32.99,-14.06 l 671.37,-653.59 c 63.12,-61.45 169.11,-15.9 167.91,72.22 l -7.54,561.16 c -0.58,44.06 52.39,66.82 83.96,36.07 l 583.55,-568.07 c 59.52,-57.94 159.12,-11.33 152.72,71.51 l -37.92,490.48 c -4.1,52.79 50.62,90.17 98.31,67.07 L 4050.03,4693 c 71.15,-34.39 93.02,5.68 84.45,100.51 0,0 -6.83,126.47 -42.52,247.35" /><path
         id="path68"
         style="fill:#cc9675;fill-opacity:1;fill-rule:nonzero;stroke:none"
         d="m 3755.81,4093.47 c -23.57,-36.7 -72.47,-47.32 -109.18,-23.77 l -69.23,44.47 c -36.69,23.59 -47.34,72.48 -23.77,109.18 23.62,36.71 72.46,47.34 109.18,23.75 l 145.99,-31.74 c 36.71,-23.6 -29.4,-85.17 -52.99,-121.89" /><path
         id="path70"
         style="fill:#6d401b;fill-opacity:1;fill-rule:nonzero;stroke:none"
         d="m 4307.91,2178.11 h -97.81 v 1715.95 h 97.81 V 2178.11" /><path
         id="path72"
         style="fill:#6d401b;fill-opacity:1;fill-rule:nonzero;stroke:none"
         d="m 4431.06,4115.06 c -122.04,0 -220.96,-98.95 -220.96,-221 0,-76.45 38.8,-143.8 97.81,-183.48 v 183.48 c 0,68.03 55.14,123.17 123.15,123.17 68.03,0 123.17,-55.14 123.17,-123.17 0,-59.49 -42.21,-109.16 -98.33,-120.64 -25.76,-5.28 -49.7,-23.16 -49.7,-49.4 0,-27.5 20.14,-52.58 47.45,-49.78 111.45,11.31 198.41,105.42 198.41,219.82 0,122.05 -98.95,221 -221,221" /><path
         id="path74"
         style="fill:#90c644;fill-opacity:1;fill-rule:nonzero;stroke:none"
         d="m 3026.54,4708.84 c 243.08,-231.31 565.97,-540.27 983.09,-689.41 276.24,-98.78 460.18,-64.34 528.33,-64.34 l -106.9,63.19 c -85.65,10.93 -217.76,9.23 -391.97,73.68 -144.22,53.36 -282.46,133.7 -460.59,256.4 -17.01,11.71 -37.87,27.46 -62.14,46.77 C 3202.43,4645.07 2344.98,5494.74 1888.65,5952.8 H 1761.91 C 2158.4,5561.22 2964.78,4767.62 3026.54,4708.84" /><path
         id="path76"
         style="fill:#dec8a9;fill-opacity:1;fill-rule:nonzero;stroke:none"
         d="m 3655.85,4276.97 c -11.07,-16.85 -33.71,-21.45 -50.48,-10.31 -16.8,11.07 -21.42,33.73 -10.31,50.48 l 40.7,61.6 c 11.09,16.77 33.71,21.36 50.51,10.28 16.78,-11.08 21.41,-33.71 10.3,-50.51 l -40.72,-61.54" /><path
         id="path78"
         style="fill:#dec8a9;fill-opacity:1;fill-rule:nonzero;stroke:none"
         d="m 3722.71,4262.28 c -11.12,-16.77 -33.71,-21.41 -50.53,-10.29 -16.79,11.11 -21.43,33.72 -10.32,50.53 l 40.72,61.55 c 11.11,16.8 33.75,21.43 50.5,10.32 16.78,-11.11 21.39,-33.76 10.32,-50.54 l -40.69,-61.57" /><path
         id="path80"
         style="fill:#dec8a9;fill-opacity:1;fill-rule:nonzero;stroke:none"
         d="m 3772.83,4218.34 c -11.1,-16.81 -33.7,-21.42 -50.53,-10.31 -16.77,11.08 -21.41,33.71 -10.31,50.51 l 40.72,61.58 c 11.14,16.77 33.75,21.4 50.51,10.29 16.81,-11.09 21.44,-33.75 10.32,-50.49 l -40.71,-61.58" /><path
         id="path82"
         style="fill:#dec8a9;fill-opacity:1;fill-rule:nonzero;stroke:none"
         d="m 3821.13,4178.71 c -9.3,-14.14 -28.86,-17.63 -43.73,-7.82 -14.81,9.77 -19.26,29.15 -9.93,43.28 l 34.24,51.75 c 9.33,14.1 28.92,17.61 43.74,7.83 14.82,-9.79 19.28,-29.23 9.94,-43.3 l -34.26,-51.74" /><path
         id="path84"
         style="fill:#dec8a9;fill-opacity:1;fill-rule:nonzero;stroke:none"
         d="m 3627.54,4240.78 c 18.5,-18.5 18.5,-48.53 0,-67.01 -18.52,-18.54 -48.54,-18.54 -67.03,0 l -67.88,67.85 c -18.5,18.5 -18.5,48.52 0,67.07 18.48,18.47 48.51,18.47 67.04,0 l 67.87,-67.91" /><path
         id="path86"
         style="fill:#94c64e;fill-opacity:1;fill-rule:nonzero;stroke:none"
         d="m 62.7148,4777.59 c 60.5272,-58.91 162.1402,-15.24 160.9962,69.24 v 512.53 c 12.949,27.52 51.309,37.67 76.016,13.63 l 623.652,-607.15 c 60.527,-58.93 162.111,-15.24 161.001,69.21 l -7.19,534.52 c -0.57,42.22 50.22,64.06 80.49,34.61 l 643.63,-626.59 c 60.51,-58.91 162.13,-15.24 160.98,69.24 l -7.23,537.98 c -0.57,42.23 50.23,64.05 80.48,34.57 L 2595,4874.78 c 57.06,-55.54 152.54,-10.86 146.41,68.55 l -36.37,470.22 c -3.93,50.6 48.53,86.44 94.26,64.3 l 596.68,-288.4 c 68.2,-32.96 139.84,38.5 107.05,106.8 0,0 -45.59,164.18 -115.12,281.47 -25.88,43.64 -181.03,269.16 -427.42,375.08 L 0,5952.8 V 4838.65 l 62.7148,-61.06" /><path
         id="path88"
         style="fill:#a09332;fill-opacity:1;fill-rule:nonzero;stroke:none"
         d="m 5282.23,5875.16 c 77.98,-22.41 161.03,-32.52 202.31,-249.29 20.62,-108.28 28.43,-246.31 47.33,-365.8 43.54,-275.36 409.3,-270.14 409.3,-270.14 0,0 79.03,0.98 158.5,0 422.62,-5.15 386.45,-470.47 386.45,-470.47 l -4.19,-450.23 h 233.39 l 4.02,580.6 c 0,400.37 -416.94,526.85 -653.63,526.78 -18.81,0 -59.96,0 -143.41,0 -155.66,0 -275.48,38.43 -293.73,195.25 -7.7,66.35 -31.69,166.16 -42.36,264.8 -20.31,187.99 -151.35,275.89 -252.5,316.14 H 5000.8 c 91.43,-24.72 207.36,-56.36 281.43,-77.64" /></g></g></svg>