<?xml version="1.0" encoding="iso-8859-1"?>
<!-- Generator: Adobe Illustrator 19.0.0, SVG Export Plug-In . SVG Version: 6.00 Build 0)  -->
<svg version="1.1" id="Capa_1" xmlns="http://www.w3.org/2000/svg" xmlns:xlink="http://www.w3.org/1999/xlink" x="0px" y="0px"
	 viewBox="0 0 463 463" style="enable-background:new 0 0 463 463;" xml:space="preserve">
<path style="fill:#00ACEA;" d="M328.9,434.915l-91.7-66.3c0,0,0,0-0.1,0l-0.1-0.1c-0.1,0-0.1-0.1-0.2-0.1c-0.2-0.1-0.4-0.3-0.6-0.4
	c-0.1-0.1-0.2-0.1-0.3-0.2c-0.2-0.1-0.3-0.2-0.5-0.3c-0.2-0.1-0.3-0.1-0.5-0.2c-0.1-0.1-0.3-0.1-0.4-0.2c-0.2-0.1-0.4-0.1-0.6-0.2
	c-0.1,0-0.2-0.1-0.4-0.1c-0.2,0-0.4-0.1-0.6-0.1c-0.1,0-0.2,0-0.4-0.1c-0.2,0-0.4,0-0.6-0.1c-0.1,0-0.3,0-0.4,0c-0.2,0-0.4,0-0.5,0
	c-0.2,0-0.3,0-0.5,0s-0.3,0-0.5,0s-0.3,0-0.5,0.1c-0.1,0-0.3,0-0.4,0.1c-0.2,0-0.4,0.1-0.5,0.1s-0.3,0.1-0.4,0.1
	c-0.2,0-0.3,0.1-0.5,0.2s-0.3,0.1-0.5,0.2c-0.1,0.1-0.3,0.1-0.4,0.2c-0.2,0.1-0.4,0.2-0.6,0.3c-0.1,0.1-0.2,0.1-0.3,0.2
	c-0.2,0.1-0.4,0.3-0.6,0.4c-0.1,0-0.1,0.1-0.2,0.1l-0.1,0.1c0,0,0,0-0.1,0l-91.4,66.3c-4.5,3.2-5.5,9.5-2.3,13.9
	c3.2,4.5,9.5,5.5,13.9,2.3c0,0,0.1,0,0.1-0.1l86-62.2l86,62.2c4.5,3.3,10.7,2.3,14-2.2S333.5,438.315,328.9,434.915
	C329,435.015,329,435.015,328.9,434.915L328.9,434.915z"/>
<path style="fill:#00EFD1;" d="M440,77.015v258.7c0,22.1-17.9,40-40,40H62.4c-22.1,0-40-17.9-40-40v-258.7H440z"/>
<g>
	<path style="fill:#FEDB41;" d="M463,50.015v29H0v-29c0-22.1,17.9-40,40-40h383C445.1,10.015,463,27.915,463,50.015z"/>
	<rect x="285.1" y="149.315" style="fill:#FEDB41;" width="45.3" height="148.5"/>
</g>
<rect x="208.9" y="201.015" style="fill:#00ACEA;" width="45.3" height="96.7"/>
<rect x="132.7" y="236.515" style="fill:#FEDB41;" width="45.3" height="61.2"/>
<g>
</g>
<g>
</g>
<g>
</g>
<g>
</g>
<g>
</g>
<g>
</g>
<g>
</g>
<g>
</g>
<g>
</g>
<g>
</g>
<g>
</g>
<g>
</g>
<g>
</g>
<g>
</g>
<g>
</g>
</svg>
