<svg height="512" viewBox="0 0 60 54" width="512" xmlns="http://www.w3.org/2000/svg"><g id="033---Right-Arrow" fill="none"><g id="Icons" transform="translate(1 1)"><path id="Shape" d="m58 23.1c-.0144368.8401478-.2983864 1.6534355-.81 2.32-.33.417 1.209-.959-21.5 19.55-1.6402857 1.4828846-4.1721154 1.3552857-5.655-.285s-1.3552857-4.1721154.285-5.655c8.028-7.258 4.952-4.476 13.3-12.03h-39.62c-2.209139 0-4-1.790861-4-4s1.790861-4 4-4h32.99l-6.67-6.03c-.836797-.7603618-1.3127139-1.8393489-1.31-2.97h-.01v-6h.01c.0059555-1.57782544.9373097-3.00527204 2.3790661-3.64629246 1.4417563-.64102042 3.1254813-.37626618 4.3009339.67629246 19.41 17.559 21.21 19.157 21.34 19.36.6476522.7521133.9932814 1.717737.97 2.71z" fill="#00bcd4"/><path id="Shape" d="m57.03 20.39c-.135-.2-1.933-1.8-21.34-19.36-1.1297212-1.02793874-2.7509297-1.31222464-4.163-.73.4270734.17314707.8206463.4195109 1.163.728 19.41 17.561 21.21 19.159 21.34 19.362.6476522.7521133.9932814 1.717737.97 2.71-.0144368.8401478-.2983864 1.6534355-.81 2.32-.33.417 1.209-.959-21.5 19.55-.3419912.3084728-.7352335.5548415-1.162.728 1.4113014.5833417 3.0325071.299767 4.162-.728 22.71-20.509 21.17-19.133 21.5-19.55.5116136-.6665645.7955632-1.4798522.81-2.32.0232814-.992263-.3223478-1.9578867-.97-2.71z" fill="#00838f"/><path id="Shape" d="m36.99 33h-32.99c-2.209139 0-4-1.790861-4-4v-6c0 2.209139 1.790861 4 4 4h39.62z" fill="#00bcd4"/><path id="Shape" d="m58 23.22v6c-.0136815.2324221-.0471358.4632565-.1.69-.02.07-.04.13-.06.2-.03.11-.06.22-.1.33-.02.05-.05.09-.07.14-.0325658.0785614-.0692842.1553364-.11.23-.0714035.1467654-.1550319.2872612-.25.42-.04.06-.08.13-.12.19-.1468268.1881646-.3072572.3653065-.48.53-.01 0-.01.01-.02.02l-20.69 18.72-.31.28c-1.1734909 1.0591058-2.8606387 1.3277822-4.3050616.6855762s-2.375158-2.0748213-2.3749384-3.6555762v-6c-.0002196 1.5807549.9305155 3.0133702 2.3749384 3.6555762s3.1315707.3735296 4.3050616-.6855762l.31-.28 20.69-18.72c.01-.01.01-.02.02-.02.1727428-.1646935.3331732-.3418354.48-.53.04-.06.08-.13.12-.19.0949681-.1327388.1785965-.2732346.25-.42.0407158-.0746636.0774342-.1514386.11-.23.02-.05.05-.09.07-.14.04-.11.07-.22.1-.33.02-.07.04-.13.06-.2.0528642-.2267435.0863185-.4575779.1-.69z" fill="#00bcd4"/><path id="Shape" d="m43.62 27-6.63 6h-32.99c-2.209139 0-4-1.790861-4-4v-6c0 2.209139 1.790861 4 4 4z" fill="#3f51b5"/><path id="Shape" d="m58 23.22c0 6.478.127 6.454-.44 7.59-.427.914.778-.324-21.56 19.88v-6c28-25.324 10.683-9.66 20.69-18.72.7668505-.7193872 1.2345716-1.7012445 1.31-2.75z" fill="#02a9f4"/><path id="Shape" d="m58 23.22c-.0754284 1.0487555-.5431495 2.0306128-1.31 2.75l-1.678 1.519c0 2.291-.055 2.526-.452 3.321-.407.871.651-.2-18.56 17.168v2.712c22.338-20.2 21.133-18.966 21.56-19.88.567-1.136.44-1.11.44-7.59z" fill="#0377bc"/><path id="Shape" d="m36 44.69v6l-.31.28c-1.1734909 1.0591058-2.8606387 1.3277822-4.3050616.6855762s-2.375158-2.0748213-2.3749384-3.6555762v-6c-.0002196 1.5807549.9305155 3.0133702 2.3749384 3.6555762s3.1315707.3735296 4.3050616-.6855762z" fill="#3f51b5"/><path id="Shape" d="m43.62 19h-6.63l-6.67-6.03c-.836797-.7603618-1.3127139-1.8393489-1.31-2.97h-.01v-6h.01c-.0027139 1.13065106.473203 2.20963823 1.31 2.97z" fill="#02a9f4"/></g><path id="Shape" d="m5 36h30.391l-4.744 4.29c-1.0430951.9514465-1.637318 2.298158-1.637 3.71v6c.0075092 1.9724926 1.1719487 3.7569318 2.9744127 4.5581228 1.802464.8011911 3.9073202.4699462 5.3765873-.8461228l21.044-19.043c1.0171881-.9490876 1.5948102-2.2777995 1.595-3.669 0-7.158 0-5.833-.013-6.064.0092691-1.393263-.5834491-2.7226867-1.626-3.647l-21-19c-1.4334057-1.29997977-3.490375-1.65126713-5.2739738-.90068447-1.7835989.75058266-2.970448 2.46694933-3.0430262 4.40068447-.061.275-.043-.623-.043 6.22.0120447 1.4088041.6094044 2.7491503 1.649 3.7l4.744 4.291h-30.394c-2.76005315.0033061-4.99669388 2.2399468-5 5v6c.00330612 2.7600532 2.23994685 4.9966939 5 5zm0-2c-1.65685425 0-3-1.3431458-3-3v-2.025c.86072936.6610519 1.91472125 1.0211658 3 1.025h37.024l-4.424 4zm26.01 16v-2c1.435076 1.0846653 3.3458373 1.3048432 4.99.575v3.669c-.8833599.7830326-2.1438103.9752465-3.2204102.4911002-1.0765998-.4841463-1.7692073-1.5546491-1.7695898-2.7351002zm26.038-16.8c-.337.309-18.341 16.6-19.048 17.237v-3.3l20-18.1c0 1.799.227 3.081-.952 4.163zm-25.056-18.97c-.6254311-.5737288-.9846779-1.3813097-.992-2.23v-1.971l11.024 9.971h-3.649zm-26.992 7.77h39.62c.4133341-.0002087.7839464-.2546936.9325919-.6403744.1486454-.3856808.0446888-.8230697-.2615919-1.1006256l-13.291-12.027c-1.231595-1.11147306-1.3289731-3.01090501-.2175-4.2425s3.010905-1.32897306 4.2425-.2175l21.014 19.018c.6118141.5774061.9569094 1.3825903.9531191 2.2238394-.0037902.841249-.3561269 1.6432909-.9731191 2.2151606l-21 19c-.5886459.5363106-1.36784.8140538-2.163.771-1.2089902-.0675818-2.2597775-.853043-2.6668323-1.9934513-.4070548-1.1404082-.0911162-2.4137055.8018323-3.2315487l13.3-12.03c.3093582-.2769893.4153507-.7163398.2663174-1.1039152s-.522079-.6427226-.9373174-.6410848h-39.62c-1.65685425 0-3-1.3431458-3-3s1.34314575-3 3-3z" fill="#000" transform="translate(0 -1)"/></g></svg>