<svg id="Capa_1" enable-background="new 0 0 512 512" height="512" viewBox="0 0 512 512" width="512" xmlns="http://www.w3.org/2000/svg"><g><g><g><path d="m190.984 490.801c-.363 0-.746-.002-1.122-.003-.376.001-.759.003-1.122.003z" fill="#88d37f"/></g></g><g><path d="m258.965 36.251c-4.357.31-8.683-1.266-11.588-4.529-9.619-10.803-23.63-17.609-39.233-17.609s-29.614 6.806-39.233 17.609c-2.905 3.262-7.231 4.839-11.588 4.529-21.63-1.539-40.928 15.622-40.928 38.217 0 27.503 27.69 45.041 51.775 35.87 4.108-1.564 8.724-1.263 12.466 1.043 8 4.929 17.421 7.773 27.508 7.773 10.086 0 19.508-2.844 27.508-7.773 3.742-2.306 8.358-2.606 12.466-1.043 24.075 9.165 51.775-8.343 51.775-35.87 0-22.598-19.3-39.756-40.928-38.217z" fill="#fbf1cf"/><path d="m153.815 389.714c-39.78 0-153.815-7.754-153.815-38.77 0-102.213 91.683-273.507 153.815-273.507s153.815 171.294 153.815 273.507c0 31.016-114.036 38.77-153.815 38.77z" fill="#cde9fa"/><path d="m124.33 88.151c-58.044 39.029-124.33 175.882-124.33 262.793 0 31.016 114.035 38.77 153.815 38.77 7.92 0 18.788-.309 31.109-1.046-110.174-36.019-97.98-223.417-60.594-300.517z" fill="#a2ddfd"/><path d="m153.815 159.202c-40.951 0-52.876-8.826-82.373-12.847-39.201 59.071-71.442 143.976-71.442 204.589 0 31.016 114.035 38.77 153.815 38.77s153.815-7.754 153.815-38.77c0-60.613-32.241-145.518-71.442-204.59-29.497 4.022-41.422 12.848-82.373 12.848z" fill="#88d37f"/><path d="m104.152 153.294c-10.148-2.469-19.727-5.17-32.71-6.94-39.201 59.072-71.442 143.977-71.442 204.59 0 31.016 114.035 38.77 153.815 38.77 7.92 0 18.788-.309 31.109-1.046-85.602-27.985-97.334-147.354-80.772-235.374z" fill="#5ec682"/><path d="m358.185 468.453c-39.78 0-153.815-8.335-153.815-41.674 0-109.868 91.683-293.991 153.815-293.991s153.815 184.123 153.815 293.991c0 33.339-114.035 41.674-153.815 41.674z" fill="#cde9fa"/><path d="m450.881 459.952c-126.025-37.947-155.027-239.527-122.059-315.736-58.072 41.833-124.452 189.078-124.452 282.563 0 33.339 114.035 41.674 153.815 41.674 20.063 0 59.012-2.123 92.696-8.501z" fill="#a2ddfd"/><path d="m358.185 235.726c-36.198 0-52.047-12.101-89.045-17.667-36.121 62.69-64.77 147.305-64.77 208.72 0 33.339 114.035 41.674 153.815 41.674s153.815-8.335 153.815-41.674c0-61.415-28.65-146.03-64.77-208.72-36.999 5.566-52.847 17.667-89.045 17.667z" fill="#88d37f"/><path d="m450.881 459.952c-91.318-27.496-131.694-140.905-134.464-230.284-13.938-3.851-27.623-8.652-47.276-11.609-36.121 62.69-64.77 147.305-64.77 208.72 0 33.339 114.035 41.674 153.815 41.674 20.062 0 59.011-2.123 92.695-8.501z" fill="#5ec682"/><path d="m364.415 297.063c-4.357.31-8.683-1.266-11.588-4.529-9.619-10.803-23.63-17.609-39.233-17.609s-29.614 6.806-39.233 17.609c-2.905 3.262-7.231 4.839-11.588 4.529-21.63-1.539-40.928 15.622-40.928 38.217 0 27.503 27.69 45.041 51.775 35.87 4.108-1.564 8.724-1.263 12.466 1.043 8 4.929 17.422 7.773 27.508 7.773s19.508-2.844 27.508-7.773c3.742-2.306 8.358-2.607 12.466-1.043 24.074 9.165 51.775-8.343 51.775-35.87.001-22.597-19.3-39.755-40.928-38.217z" fill="#fbf1cf"/><path d="m187.866 497.887c-40.462 0-156.453-7.094-156.453-35.472 0-93.517 93.255-250.238 156.453-250.238s156.453 156.722 156.453 250.238c0 28.378-115.991 35.472-156.453 35.472z" fill="#cde9fa"/><path d="m344.319 462.415c0-41.548-18.414-95.566-44.415-142.779-35.52-9.459-73.076 9.931-112.037 9.931s-76.517-19.39-112.037-9.931c-26.002 47.214-44.416 101.231-44.416 142.779 0 28.378 115.991 35.472 156.452 35.472 40.462 0 156.453-7.094 156.453-35.472z" fill="#88d37f"/><g><g fill="#fff"><ellipse cx="111.243" cy="414.784" rx="27.846" ry="22.175"/><ellipse cx="262.178" cy="414.784" rx="27.846" ry="22.175"/></g><g fill="#4e5660"><path d="m127.471 399.878c-7.674 0-14.972-3.324-20.021-9.119-2.721-3.123-2.396-7.86.727-10.582 3.122-2.722 7.86-2.396 10.581.727 2.2 2.525 5.376 3.973 8.713 3.973s6.513-1.448 8.713-3.974c2.721-3.123 7.458-3.448 10.582-.727 3.123 2.722 3.448 7.459.727 10.582-5.05 5.797-12.348 9.12-20.022 9.12z"/><path d="m245.949 399.878c-7.674 0-14.971-3.324-20.021-9.118-2.721-3.123-2.396-7.86.727-10.582 3.124-2.721 7.86-2.396 10.582.727 2.201 2.525 5.376 3.974 8.713 3.974s6.513-1.448 8.713-3.974c2.722-3.123 7.457-3.448 10.582-.727 3.122 2.722 3.448 7.459.727 10.582-5.052 5.795-12.349 9.118-20.023 9.118z"/><path d="m197.819 405.445c0-6.543-4.973-11.847-11.109-11.847-6.135 0-11.109 5.304-11.109 11.847s4.974 11.847 11.109 11.847 11.109-5.304 11.109-11.847z"/></g></g></g></g></svg>