<?xml version="1.0" encoding="iso-8859-1"?>
<!-- Generator: Adobe Illustrator 19.0.0, SVG Export Plug-In . SVG Version: 6.00 Build 0)  -->
<svg version="1.1" id="Capa_1" xmlns="http://www.w3.org/2000/svg" xmlns:xlink="http://www.w3.org/1999/xlink" x="0px" y="0px"
	 viewBox="0 0 512.001 512.001" style="enable-background:new 0 0 512.001 512.001;" xml:space="preserve">
<path style="fill:#80C9FF;" d="M245.994,325.262l-59.256-59.256c-46.366,46.365-115.761,67.979-156.094,108.312
	s-39.041,81.442-6.722,113.761s73.427,33.611,113.761-6.722S199.629,371.629,245.994,325.262z M51.585,460.415
	c-12.637-12.637-6.386-39.377,13.961-59.724s47.088-26.598,59.724-13.961c12.637,12.637,6.386,39.377-13.961,59.724
	S64.223,473.051,51.585,460.415z"/>
<path style="fill:#6DAAD9;" d="M245.994,325.262l-21.853-21.853c-46.366,46.366-67.98,115.761-108.312,156.094
	c-35.587,35.587-71.772,38.751-101.995,16.81c2.927,4.032,6.284,7.961,10.088,11.766c32.318,32.318,73.427,33.611,113.761-6.722
	S199.629,371.629,245.994,325.262z"/>
<g>
	<path style="fill:#FFDE76;" d="M511.671,169.898c-29.334-15.653-63.215-41.202-95.791-73.778s-58.126-66.457-73.778-95.791
		c42.575,2.552,84.42,20.089,116.951,52.62S509.12,127.324,511.671,169.898z"/>
	<path style="fill:#FFDE76;" d="M320.306,361.264c-42.575-2.552-84.42-20.09-116.951-52.62s-50.068-74.376-52.62-116.951
		c29.334,15.653,63.215,41.202,95.791,73.778S304.654,331.929,320.306,361.264z"/>
</g>
<path style="fill:#80C9FF;" d="M487.542,271.716l-99.069-148.188L240.284,24.459c-13.194,7.686-25.627,17.189-36.928,28.49
	s-20.802,23.734-28.49,36.928l107.86,139.398l139.398,107.86c13.194-7.686,25.627-17.189,36.928-28.49
	C470.353,297.344,479.855,284.91,487.542,271.716z"/>
<g>
	<path style="fill:#FC7176;" d="M422.124,337.134c-31.251,18.189-66.774,26.24-101.818,24.13l-169.57-169.57
		c-2.11-35.044,5.941-70.567,24.13-101.818L422.124,337.134z"/>
	<path style="fill:#FC7176;" d="M487.542,271.716L240.284,24.459c31.251-18.189,66.774-26.24,101.818-24.13l169.57,169.57
		C513.781,204.942,505.73,240.466,487.542,271.716z"/>
</g>
<path style="fill:#FFB641;" d="M307.546,339.725c-3.033-0.031-6.065-0.132-9.093-0.314c-37.756-2.263-74.933-16.322-105.539-42.142
	c0.812,0.961,1.634,1.916,2.467,2.865c0.036,0.04,0.072,0.08,0.107,0.121c2.523,2.825,5.159,5.684,7.866,8.391
	c28.464,28.464,64.061,45.449,101.036,50.96c5.277,0.788,10.589,1.34,15.914,1.66C316.597,354.314,312.327,347.107,307.546,339.725z
	"/>
<path style="fill:#6DAAD9;" d="M487.542,271.716l-18.561-27.763c-1.058,1.986-2.155,3.956-3.292,5.91
	c-7.686,13.194-17.189,25.627-28.49,36.928s-23.734,20.802-36.928,28.49c-1.225,0.713-2.457,1.404-3.694,2.085l25.547,19.768l0,0
	c13.194-7.686,25.627-17.189,36.928-28.49c1.412-1.412,2.797-2.843,4.154-4.291C472.701,294.224,480.815,283.262,487.542,271.716
	L487.542,271.716z"/>
<path style="fill:#FFB641;" d="M489.818,148.045c0.182,3.029,0.283,6.061,0.314,9.093c7.382,4.781,14.589,9.051,21.54,12.76
	c-2.552-42.575-20.089-84.42-52.62-116.951c-1.604-1.604-3.211-3.247-4.928-4.732c-2.113-1.957-4.265-3.867-6.466-5.726
	C473.496,73.112,487.555,110.289,489.818,148.045z"/>
<g>
	<path style="fill:#38484A;" d="M269.2,135.305c-1.977,0-3.955-0.754-5.464-2.263c-3.017-3.017-3.017-7.909,0-10.926l10.426-10.426
		c3.018-3.017,7.91-3.017,10.927,0c3.017,3.017,3.017,7.909,0,10.926l-10.426,10.426C273.155,134.551,271.177,135.305,269.2,135.305
		z"/>
	<path style="fill:#38484A;" d="M384.422,250.527c-1.977,0-3.955-0.754-5.464-2.263c-3.017-3.017-3.017-7.909,0-10.926
		l10.426-10.426c3.018-3.017,7.91-3.017,10.927,0c3.017,3.017,3.017,7.909,0,10.926l-10.426,10.426
		C388.377,249.773,386.399,250.527,384.422,250.527z"/>
	<path style="fill:#38484A;" d="M340.075,206.466c-8.963,0-17.712-3.666-24.294-10.248c-7.118-7.118-10.826-16.773-10.174-26.491
		c0.286-4.258,3.976-7.475,8.226-7.192c4.258,0.285,7.478,3.969,7.192,8.227c-0.354,5.269,1.717,10.565,5.682,14.53
		c3.965,3.965,9.265,6.036,14.53,5.682c4.251-0.288,7.941,2.934,8.227,7.191c0.285,4.258-2.934,7.941-7.191,8.227
		C341.54,206.441,340.807,206.466,340.075,206.466z"/>
</g>
<g>
	<path style="fill:#E6676C;" d="M320.306,361.264L320.306,361.264c35.044,2.11,70.567-5.941,101.818-24.13l-21.853-21.853
		c-31.251,18.189-66.774,26.24-101.818,24.13l0,0L320.306,361.264z"/>
	<path style="fill:#E6676C;" d="M489.818,148.045c2.11,35.044-5.941,70.567-24.13,101.818l21.853,21.853
		c14.209-24.414,22.232-51.437,24.056-78.802c0.511-7.659,0.536-15.354,0.074-23.016L489.818,148.045z"/>
</g>
<g>
</g>
<g>
</g>
<g>
</g>
<g>
</g>
<g>
</g>
<g>
</g>
<g>
</g>
<g>
</g>
<g>
</g>
<g>
</g>
<g>
</g>
<g>
</g>
<g>
</g>
<g>
</g>
<g>
</g>
</svg>
