<svg id="Capa_1" enable-background="new 0 0 512 512" height="512" viewBox="0 0 512 512" width="512" xmlns="http://www.w3.org/2000/svg"><g><path d="m131.841 161.346c-56.33 0-101.995 45.665-101.995 101.995v47.313l216.317 18.354 9.837-.765 22.018-101.22-22.018-65.677z" fill="#d0b9a4"/><path d="m482.154 276.858c0-31.877-25.842-57.719-57.719-57.719h-42.133l-40.713-47.219v-60.574h-26.327c-25.701 0-46.536 20.835-46.536 46.536v3.464h-12.726v166.898l226.154-17.589z" fill="#ba9779"/><path d="m0 310.654h259.347v90h-259.347z" fill="#bce9f8"/><g><path d="m256 310.654h256v90h-256z" fill="#73ccf2"/></g><g><g><g><g><path d="m0 340.654h52.844v30h-52.844z" fill="#ebf8fc"/></g><g><path d="m325.058 340.654h186.942v30h-186.942z" fill="#bce9f8"/></g></g><g><g><path d="m287.602 217.982h30.975v30h-30.975z" fill="#31160f"/></g></g></g></g><g><path d="m108.648 340.654h150.699v30h-150.699z" fill="#ebf8fc"/></g><path d="m256 340.654h28.514v30h-28.514z" fill="#bce9f8"/></g></svg>