<?xml version="1.0" encoding="iso-8859-1"?>
<!-- Generator: Adobe Illustrator 19.0.0, SVG Export Plug-In . SVG Version: 6.00 Build 0)  -->
<svg version="1.1" id="Capa_1" xmlns="http://www.w3.org/2000/svg" xmlns:xlink="http://www.w3.org/1999/xlink" x="0px" y="0px"
	 viewBox="0 0 512 512" style="enable-background:new 0 0 512 512;" xml:space="preserve">
<g>
	<path style="fill:#00ABE9;" d="M512,256c0,60.3-23.401,116.7-66,159l-21-21c37.8-38.101,57-88.201,57-138
		c0-49.801-19.2-99.901-57.001-137.999l21-21C488.599,139.3,512,195.7,512,256z"/>
	<path style="fill:#00ABE9;" d="M452,256c0,42.299-16.199,84.6-48.3,116.7l-21.3-21.3C408.8,325,422,290.499,422,256
		c0-34.501-13.2-69-39.6-95.4l21.3-21.3C435.801,171.4,452,213.699,452,256z"/>
	<path style="fill:#00ABE9;" d="M392,256c0,28.2-11.1,54.3-30.901,74.099l-20.999-21C354.2,295,362,276.099,362,256
		c0-20.101-7.8-39-21.899-53.101l20.999-21C380.9,201.7,392,227.8,392,256z"/>
</g>
<rect y="151" style="fill:#444444;" width="152" height="210"/>
<rect y="256" style="fill:#292929;" width="152" height="105"/>
<polygon style="fill:#5A5A5A;" points="302,0 302,512 92,361 92,151 "/>
<polygon style="fill:#444444;" points="302,256 302,512 92,361 92,256 "/>
<g>
	<path style="fill:#0095FF;" d="M392,256c0,28.2-11.1,54.3-30.901,74.099l-20.999-21C354.2,295,362,276.099,362,256H392z"/>
	<path style="fill:#0095FF;" d="M452,256c0,42.299-16.199,84.6-48.3,116.7l-21.3-21.3C408.8,325,422,290.499,422,256H452z"/>
	<path style="fill:#0095FF;" d="M512,256c0,60.3-23.401,116.7-66,159l-21-21c37.8-38.101,57-88.201,57-138H512z"/>
</g>
<g>
</g>
<g>
</g>
<g>
</g>
<g>
</g>
<g>
</g>
<g>
</g>
<g>
</g>
<g>
</g>
<g>
</g>
<g>
</g>
<g>
</g>
<g>
</g>
<g>
</g>
<g>
</g>
<g>
</g>
</svg>
