<?xml version="1.0" encoding="iso-8859-1"?>
<!-- Generator: Adobe Illustrator 19.0.0, SVG Export Plug-In . SVG Version: 6.00 Build 0)  -->
<svg version="1.1" id="Capa_1" xmlns="http://www.w3.org/2000/svg" xmlns:xlink="http://www.w3.org/1999/xlink" x="0px" y="0px"
	 viewBox="0 0 512 512" style="enable-background:new 0 0 512 512;" xml:space="preserve">
<rect y="151" style="fill:#444444;" width="152" height="210"/>
<rect y="256" style="fill:#292929;" width="152" height="105"/>
<polygon style="fill:#FF4B00;" points="447.499,256 512,320.499 490.699,341.499 426.501,277.299 362,341.499 340.699,320.499 
	405.2,256 340.699,191.499 362,170.499 426.501,234.699 490.699,170.499 512,191.499 "/>
<polygon style="fill:#5A5A5A;" points="302,0 302,512 92,361 92,151 "/>
<polygon style="fill:#444444;" points="302,256 302,512 92,361 92,256 "/>
<polygon style="fill:#DD3400;" points="512,320.499 490.699,341.499 426.501,277.299 362,341.499 340.699,320.499 405.2,256 
	447.499,256 "/>
<g>
</g>
<g>
</g>
<g>
</g>
<g>
</g>
<g>
</g>
<g>
</g>
<g>
</g>
<g>
</g>
<g>
</g>
<g>
</g>
<g>
</g>
<g>
</g>
<g>
</g>
<g>
</g>
<g>
</g>
</svg>
