<svg id="Capa_1" enable-background="new 0 0 512 512" height="512" viewBox="0 0 512 512" width="512" xmlns="http://www.w3.org/2000/svg"><g><g fill="#de4c12"><path d="m256.104 369.171-36.956 48.764 37.014 94.065 7.343-80.944z"/><path d="m144.929 25.353 7.527 100.801 54.86 27.28 11.733-59.347z"/><path d="m6.412 199.088 83.514 56.946 51.498-26.103-35.063-45.958z"/><path d="m106.405 328.119-50.482 87.577 96.586-29.808 10.833-57.769z"/></g><path d="m256.104 369.171.058 142.829 36.898-94.106z" fill="#ae0000"/><path d="m405.697 327.939-58.85.18 12.811 57.642 96.626 29.69z" fill="#ae0000"/><path d="m405.567 183.79-33.364 46.141 49.88 25.902 83.447-57.05z" fill="#ae0000"/><path d="m292.768 94.04 14.542 56.816 52.087-24.825 7.404-100.813z" fill="#ae0000"/><g><path d="m256.006 0-55.382 140.997h70.381z" fill="#ecbd2c"/><path d="m256.006 0 .098 140.997h55.284z" fill="#e68f21"/><g fill="#ecbd2c"><path d="m55.857 96.387 75.706 131.21 69.061-86.6z"/><path d="m131.563 227.597-125.139 85.368 149.786 22.619z"/><path d="m156.21 335.584-11.278 151.064 111.074-103.005z"/></g><path d="m355.802 335.584-99.796 48.059 111.074 103.005z" fill="#e68f21"/><path d="m380.449 227.597-24.647 107.987 149.786-22.619z" fill="#e68f21"/><path d="m311.388 140.997 69.061 86.6 75.706-131.21z" fill="#e68f21"/></g><path d="m128.363 256c0 70.496 57.148 127.643 127.643 127.643l30.264-127.643-30.264-127.643c-70.495 0-127.643 57.147-127.643 127.643z" fill="#f9e997"/><path d="m256.006 128.357v255.287c70.495 0 127.643-57.148 127.643-127.643s-57.147-127.644-127.643-127.644z" fill="#f5d844"/></g></svg>