<svg height="512" viewBox="0 0 192 192" width="512" xmlns="http://www.w3.org/2000/svg"><g id="_10-humor" data-name="10-humor"><path d="m96 0a96 96 0 1 0 96 96 96.108 96.108 0 0 0 -96-96zm0 176a80 80 0 1 1 80-80 80.091 80.091 0 0 1 -80 80z"/><path d="m64 72a8.009 8.009 0 0 1 8 8h16a24 24 0 0 0 -48 0h16a8.009 8.009 0 0 1 8-8z"/><path d="m128 56a24.027 24.027 0 0 0 -24 24h16a8 8 0 0 1 16 0h16a24.027 24.027 0 0 0 -24-24z"/><path d="m136 96h-80a8 8 0 0 0 -8 8 48 48 0 0 0 96 0 8 8 0 0 0 -8-8zm-40 40a32.054 32.054 0 0 1 -30.987-24h61.974a32.054 32.054 0 0 1 -30.987 24z"/></g></svg>